<!DOCTYPE svg PUBLIC "-//W3C//DTD SVG 1.1//EN" "http://www.w3.org/Graphics/SVG/1.1/DTD/svg11.dtd">
<!-- Uploaded to: SVG Repo, www.svgrepo.com, Transformed by: SVG Repo Mixer Tools -->
<svg fill="#000000" height="100px" width="100px" version="1.1" id="Capa_1" xmlns="http://www.w3.org/2000/svg" xmlns:xlink="http://www.w3.org/1999/xlink" viewBox="0 0 261.93 261.93" xml:space="preserve" stroke="#000000" stroke-width="1.57155" transform="rotate(0)">
<g id="SVGRepo_bgCarrier" stroke-width="0"/>
<g id="SVGRepo_tracerCarrier" stroke-linecap="round" stroke-linejoin="round" stroke="#CCCCCC" stroke-width="2.61925"> <g> <path d="M132.452,105.927c-1.731-0.474-3.652-0.262-5.48-0.049c-0.351-1.427-0.727-2.848-1.208-4.23 c-0.294-0.845-1.646-0.759-1.625,0.22c0.03,1.421,0.164,2.843,0.326,4.262c-1.56,0.136-3.174,0.327-4.471,1.141 c-0.582,0.365-0.431,1.174,0.182,1.395c1.441,0.517,3.069,0.407,4.64,0.31c0.005,0.039,0.009,0.078,0.014,0.117 c0.253,1.929,0.204,3.782,1.433,5.333c0.577,0.728,1.69,0.231,1.933-0.51c0.537-1.639-0.035-3.341-0.475-4.992 c1.596,0.046,3.225,0.126,4.731-0.3C133.773,108.248,133.791,106.293,132.452,105.927z"/> <path d="M162.13,86.063c-2.245-0.929-4.922-1.049-7.376-1.218c0.113-1.817,0.281-3.665-0.438-5.356 c-0.239-0.563-1.042-0.427-1.318,0c-0.966,1.494-1.06,3.378-1.247,5.139c-1.878-0.12-3.774-0.129-5.555,0.443 c-0.619,0.199-0.567,0.99,0,1.208c1.614,0.621,3.397,0.829,5.168,1.013c-0.243,1.49-0.435,3.014-0.034,4.395 c0.318,1.092,2.034,1.475,2.583,0.338c0.641-1.326,0.728-2.818,0.751-4.308c2.354,0.414,4.7,1.14,7.085,1.154 C163.482,88.881,163.534,86.644,162.13,86.063z"/> <path d="M258.936,146.023c-1.835,4.374-3.276,8.983-7.589,11.611c-3.658,2.23-7.572,1.907-10.971,0.189 c3.463-8.493,5.868-17.316,7.011-25.919c0.262-1.973-3.232-2.464-3.502-0.474c-1.167,8.594-3.395,16.725-6.524,24.36 c-0.876-0.726-1.71-1.51-2.437-2.385c-5.169-6.218-5.961-14.013-4.447-21.7c0.181-0.917-1.155-1.641-1.615-0.681 c-4.554,9.517-1.291,21.747,6.987,28.174c-4.738,10.39-11.193,19.8-19.255,27.961c-8.838-11.173-19.923-20.33-32.999-25.652 c15.442-14.167,24.937-36.811,15.641-56.053c-0.033-0.067-0.085-0.102-0.125-0.159c2.293-3.271,4.587-6.542,6.88-9.813 c4.093-5.839,15.814-16.113,14.121-23.606c-0.232-1.027-1.553-1.536-2.43-0.989c-8.717,5.439-17.564,10.628-26.448,15.751 c-5.194-12.151-15.443-20.491-27.428-25.032c0.189-0.43,0.223-0.938-0.035-1.471c-4.525-9.365-11.894-13.763-20.409-14.896 c-0.088-0.209-0.226-0.413-0.445-0.603C123.898,28.2,94.56,16.689,71.785,30.071c0.236-3.198-3.766-6.303-6.407-7.375 C60.713,20.802,55.419,22.17,52.166,26c-3.079,3.623-3.551,8.81-1.234,12.962c1.359,2.435,3.993,4.895,6.698,4.766 c-13.364,21.517-6.86,56.549,10.159,73.814c1.463,7.303,5.813,13.777,14.384,18.246c0.514,1.854,1.096,3.705,1.794,5.545 c4.306,11.36,12.472,20.04,22.515,25.983c-12.215,7.99-22.494,18.79-29.792,31.3c-11.29-6.018-21.67-12.905-31.009-21.126 c0.271-0.281,0.563-0.5,0.825-0.803c13.583-15.71-2.289-35.592-15.313-44.907c-1.75-1.251-3.933,1.573-2.306,2.99 c10.247,8.929,26.078,23.597,15.335,38.355c-0.474,0.651-0.991,1.171-1.5,1.714c-10.026-9.353-18.809-20.35-26.208-33.586 c-1.111-1.986-4.152-0.21-3.052,1.784c6.808,12.342,15.662,24.179,26.062,34.512c-11.756,7.144-29.225-5.715-37.712-13.383 c-0.813-0.735-2.358,0.268-1.615,1.246c8.462,11.135,28.629,23.677,42.159,14.84c9.585,9.031,20.409,16.717,32.08,22.431 c-5.802,11.226-9.254,23.644-9.623,36.515c-0.028,0.979,1.607,1.248,1.751,0.237c0.248-1.733,0.614-3.405,0.929-5.103 c3.351,0.086,6.699,0.074,10.047-0.093c0.568-0.028,0.569-0.855,0-0.883c-3.283-0.164-6.566-0.175-9.852-0.096 c0.569-2.918,1.259-5.773,2.024-8.587c7.842,0.171,15.69,0.196,23.532,0.099c0.786-0.01,0.786-1.207,0-1.221 c-7.727-0.134-15.461-0.145-23.191-0.019c0.606-2.14,1.287-4.238,2.006-6.314c3.317,0.355,6.721,0.423,10.048,0.604 c0.648,0.035,0.816-1.059,0.156-1.152c-3.179-0.446-6.568-0.763-9.804-0.564c0.674-1.881,1.407-3.728,2.179-5.553 c3.073,0.13,6.124,0.4,9.181,0.757c0.694,0.081,0.865-1.134,0.167-1.23c-2.936-0.404-5.893-0.578-8.854-0.656 c0.773-1.764,1.58-3.509,2.467-5.206c7.375,3.331,15.07,5.868,23.02,7.382c1.153,0.22,1.546-1.309,0.478-1.735 c-7.415-2.958-14.505-6.144-21.289-9.612c1.022-1.746,2.114-3.448,3.247-5.125c4.811,0.522,9.63,0.939,14.471,1.033 c0.757,0.015,0.752-1.141,0-1.173c-4.625-0.192-9.246-0.389-13.863-0.721c1.454-2.101,3.037-4.119,4.668-6.106 c6.378,0.08,12.674,0.637,19.008,1.49c0.807,0.109,1.184-1.104,0.346-1.255c-6.154-1.11-12.381-1.417-18.616-1.198 c2.156-2.557,4.515-4.978,6.978-7.328c4.587,0.138,9.171,0.295,13.759,0.33c0.857,0.007,0.836-1.252,0-1.317 c-4.154-0.322-8.308-0.343-12.468-0.244c1.702-1.563,3.488-3.067,5.325-4.536c3.809,0.245,7.616,0.519,11.427,0.747 c0.809,0.048,1.015-1.31,0.194-1.436c-3.196-0.487-6.457-0.681-9.715-0.759c1.641-1.247,3.293-2.488,5.053-3.65 c16.78,8.675,37.929,10.208,55.343,4.046c5.922-2.095,11.7-5.578,16.896-10.008c12.628,6.887,23.285,16.092,31.848,26.964 c-5.444,5.087-11.523,9.658-18.176,13.653c-0.72,0.433-0.251,1.728,0.594,1.409c7.366-2.777,14.018-6.918,19.916-12.026 c9.025,12.348,15.448,26.679,19.025,42.174c0.504,2.183,3.802,1.254,3.346-0.922c-3.215-15.331-9.847-30.863-19.431-43.992 c8.436-8.125,15.107-18.287,19.972-29.15c10.501,5.26,22.032-3.325,22.963-14.728C262.071,144.562,259.537,144.593,258.936,146.023 z M201.657,84.56c3.222-1.918,10.795-8.582,14.141-9.048c1.956-2.321,1.236-1.219-2.159,3.306l-6.012,8.564 c-3.507,4.996-7.015,9.992-10.522,14.988c-7.469,10.64-14.941,21.279-22.407,31.921c-3.947-0.959-7.293-1.884-10.442-3.739 c2.214,0.237,4.429,0.45,6.655,0.586c0.494,0.03,0.47-0.698,0-0.755c-2.684-0.327-5.371-0.551-8.066-0.737 c-0.944-0.66-1.877-1.398-2.806-2.291c-0.438-0.421-0.844-0.854-1.25-1.288c4.791,0.661,9.928,0.492,14.697,0.163 c0.806-0.056,0.825-1.28,0-1.269c-5.132,0.072-10.403-0.174-15.516,0.193c-1.468-1.697-2.647-3.519-3.615-5.443 c2.667,0.171,5.318,0.185,7.996-0.106c0.702-0.076,0.739-1.145,0-1.124c-2.874,0.08-5.754,0.056-8.629-0.06 c-0.74-1.729-1.226-3.588-1.544-5.536c5.82,0.481,11.687,0.095,17.45-0.782c0.576-0.088,0.447-1.085-0.139-1.025 c-5.825,0.59-11.624,0.765-17.47,0.911c-0.026-0.21-0.088-0.4-0.108-0.613c3.462-1.6,6.841-3.332,10.24-5.03 c4.076,0.152,8.114,0.134,12.191-0.251c0.617-0.058,0.64-1.004,0-0.98c-3.396,0.127-6.798,0.217-10.2,0.252 c2.868-1.452,5.719-2.936,8.563-4.436c4.323-0.088,8.672-0.331,12.91-1.132c0.573-0.108,0.449-1.068-0.139-1.025 c-3.428,0.249-6.84,0.562-10.258,0.82c2.842-1.519,5.677-3.055,8.492-4.642c0.126-0.071,0.249-0.146,0.375-0.217 c2.655-0.136,5.31-0.266,7.96-0.483c0.833-0.068,0.86-1.309,0-1.317c-1.734-0.016-3.46,0.078-5.184,0.193 C191.816,90.31,196.76,87.475,201.657,84.56z M53.61,37.499c2.637,0.063,5.23-0.087,7.83-0.661 c0.712-0.157,0.571-1.369-0.175-1.293c-2.744,0.278-5.49,0.501-8.249,0.504c-0.122-0.386-0.215-0.757-0.275-1.096 c-0.107-0.609-0.124-1.216-0.103-1.816c1.543,0.041,3.089,0.09,4.628,0.022c0.868-0.038,0.869-1.311,0-1.349 c-1.478-0.065-2.962-0.021-4.444,0.018c0.255-1.311,0.873-2.509,1.722-3.577c1.622-0.035,3.217,0.075,4.828,0.307 c0.852,0.123,1.237-1.165,0.363-1.317c-1.345-0.233-2.686-0.281-4.035-0.256c4.153-3.219,12.503-2.155,13.038,4.064 c0.026,0.303,0.152,0.558,0.317,0.772c-1.954,1.358-3.86,2.89-5.691,4.66c-1.449,1.401-2.735,2.934-3.926,4.536 c-0.068,0.007-0.128-0.036-0.197-0.011C56.697,41.928,54.71,39.776,53.61,37.499z M57.431,93.625 c1.911,0.069,3.798,0.019,5.707-0.281c0.638-0.1,0.495-1.196-0.154-1.136c-1.975,0.183-3.958,0.255-5.94,0.205 c-0.54-1.688-1.014-3.398-1.451-5.117c3.51,0.17,7.005,0.325,10.526,0.21c0.678-0.022,0.665-0.992,0-1.044 c-3.606-0.282-7.199-0.281-10.808-0.268c-0.43-1.792-0.791-3.595-1.094-5.4c2.257-0.011,4.525-0.094,6.767-0.274 c0.66-0.053,0.681-1.058,0-1.044c-2.3,0.049-4.616,0.199-6.913,0.425c-0.313-2.013-0.513-4.024-0.649-6.028 c5.368,0.026,10.77,0.173,16.125-0.234c1.001-0.076,1.024-1.54,0-1.574c-5.388-0.181-10.798,0.2-16.18,0.452 c-0.114-2.447-0.058-4.868,0.128-7.258c2.46-0.007,4.915-0.108,7.339-0.568c0.583-0.11,0.455-1.084-0.141-1.041 c-2.378,0.169-4.748,0.364-7.126,0.475c0.197-1.985,0.511-3.938,0.943-5.852c5.025,0.016,10.02-0.017,15.034-0.38 c0.788-0.057,0.803-1.21,0-1.237c-4.9-0.166-9.77-0.014-14.665,0.189c0.727-2.778,1.728-5.456,3.025-8.003 c2.435,0.14,4.952,0.038,7.361-0.276c0.729-0.095,0.775-1.134,0-1.173c-2.204-0.11-4.463-0.001-6.673,0.256 c1.105-1.983,2.352-3.9,3.868-5.684c0.079-0.093,0.162-0.174,0.241-0.266c6.444,0.556,13.097,0.419,19.37-1.157 c1.102-0.277,0.605-1.808-0.457-1.657c-5.969,0.848-11.745,1.496-17.709,1.486c2.019-2.164,4.167-3.928,6.372-5.496 c3.276,0.163,6.554,0.34,9.834,0.206c0.796-0.032,0.775-1.15,0-1.221c-2.672-0.244-5.354-0.274-8.035-0.283 c2.394-1.504,4.882-2.666,7.43-3.569c1.914,0.099,3.827,0.188,5.746,0.196c0.793,0.003,0.776-1.166,0-1.221 c-0.647-0.046-1.293-0.064-1.94-0.095c18.279-4.416,39.181,4.424,54.615,16.052c-18.317,0.323-40.009,13.008-50.476,23.621 c-3.181,3.226-6.337,7.239-9.221,11.634c-0.229,0.02-0.458,0.039-0.688,0.059c-0.646,0.055-0.666,1.04-0.009,1.025 c-1.683,2.654-3.289,5.399-4.662,8.28c-0.347,0.01-0.694,0.036-1.042,0.042c-0.724,0.013-0.725,1.109,0,1.124 c0.177,0.004,0.349-0.014,0.525-0.012c-1.106,2.426-2.096,4.895-2.883,7.386c-0.099-0.162-0.248-0.291-0.498-0.298 c-3.353-0.086-6.699-0.055-10.051-0.021C58.393,96.415,57.901,95.025,57.431,93.625z M67.336,114.422 c-1.932-2.973-3.74-6.238-5.402-9.668c1.442-0.077,2.88-0.197,4.307-0.428c0.52-0.084,0.381-0.896-0.122-0.899 c-1.564-0.009-3.123,0.117-4.678,0.29c-0.705-1.502-1.364-3.046-1.999-4.609c2.885,0.027,5.769,0.038,8.656-0.018 c0.002,0.304,0.195,0.591,0.591,0.564c0.11-0.007,0.22-0.014,0.33-0.021C67.597,104.634,66.909,109.662,67.336,114.422z M80.025,118.787c-0.042,4.801,0.427,9.663,1.561,14.516c-4.021-3.574-6.933-7.364-8.925-11.277 c0.959-0.022,1.919-0.023,2.881-0.081c0.475-0.029,0.476-0.71,0-0.739c-1.117-0.068-2.23-0.074-3.345-0.094 c-0.783-1.667-1.34-3.362-1.798-5.065c2.652-0.088,5.296-0.399,7.88-0.993c0.757-0.174,0.424-1.269-0.316-1.146 c-2.611,0.432-5.223,0.705-7.854,0.915c-0.467-2.082-0.65-4.185-0.679-6.293c2.124-0.253,4.261-0.403,6.398-0.503 c0.565-0.027,0.571-0.871,0-0.883c-2.169-0.046-4.292,0.158-6.427,0.474c0.04-2.692,0.446-5.391,1.117-8.077 c1.868-0.115,3.737-0.232,5.596-0.445c0.78-0.089,0.824-1.285,0-1.253c-1.747,0.068-3.489,0.22-5.231,0.379 c0.727-2.54,1.74-5.057,2.951-7.54c2.339-0.042,4.65-0.196,6.984-0.591c0.566-0.096,0.441-1.063-0.137-1.01 c-2.076,0.193-4.162,0.325-6.248,0.417c1.472-2.834,3.242-5.609,5.24-8.299c2.434-0.093,4.867-0.192,7.291-0.435 c0.735-0.074,0.769-1.192,0-1.172c-2.127,0.054-4.248,0.221-6.368,0.403c1.947-2.507,4.097-4.931,6.408-7.247 c1.863,0.117,3.709,0.098,5.555-0.233c0.687-0.123,0.538-1.309-0.166-1.231c-1.395,0.156-2.782,0.252-4.174,0.292 c1.394-1.343,2.841-2.646,4.333-3.904c2.808-0.212,5.612-0.436,8.407-0.796c0.824-0.106,0.881-1.373,0-1.333 c-2.106,0.095-4.204,0.27-6.301,0.464c1.667-1.324,3.393-2.572,5.143-3.776c2.917-0.237,5.821-0.5,8.725-0.911 c0.596-0.084,0.446-1.055-0.141-1.041c-2.05,0.047-4.088,0.172-6.124,0.321c21.243-13.646,46.865-17.83,57.58-0.37 c-13.451-4.039-28.563-3.509-41.086,1.712c-23.559,9.823-38.226,32.044-38.732,56.087 C79.631,118.104,79.639,118.657,80.025,118.787z M158.864,171.515c-12.466,3.36-26.699,2.743-39.407-1.658 c2.959,0.303,5.951,0.461,8.912,0.452c0.634-0.002,0.603-0.897,0-0.964c-3.559-0.392-7.198-0.619-10.78-0.532 c-0.175,0.004-0.276,0.089-0.342,0.195c-3.002-1.163-5.906-2.541-8.666-4.133c2.98,0.214,5.961,0.454,8.94,0.573 c0.678,0.027,0.635-0.945,0-1.028c-3.558-0.463-7.173-0.655-10.775-0.706c-2.541-1.595-4.935-3.39-7.166-5.358 c5.719,0.664,11.662,0.454,17.367,0.124c0.788-0.045,0.802-1.245,0-1.237c-6.105,0.061-12.318-0.227-18.41,0.173 c-1.842-1.718-3.547-3.578-5.105-5.565c2.392,0.183,4.861,0.019,7.238-0.058c0.671-0.022,0.673-1.022,0-1.044 c-2.644-0.086-5.408-0.298-8.047,0.006c-1.368-1.854-2.628-3.801-3.708-5.886c-0.031-0.06-0.051-0.122-0.082-0.182 c5.277,0.003,10.578-0.409,15.835-0.825c0.732-0.058,0.753-1.178,0-1.157c-5.325,0.153-10.693,0.312-15.991,0.894 c-0.119,0.013-0.192,0.081-0.271,0.141c-1.411-2.88-2.466-5.831-3.325-8.807c1.773,0.102,3.564,0.105,5.309,0.03 c0.592-0.025,0.587-0.877,0-0.916c-1.833-0.119-3.731-0.161-5.599-0.074c-0.549-2.046-0.93-4.108-1.233-6.174 c4.633,0.173,9.229-0.02,13.813-0.886c0.483-0.091,0.38-0.922-0.117-0.868c-4.602,0.501-9.193,0.847-13.812,0.82 c-0.338-2.621-0.451-5.248-0.413-7.865c2.169,0.111,4.341,0.15,6.507-0.049c0.627-0.058,0.65-1.021,0-0.996 c-2.176,0.085-4.343,0.121-6.513,0.099c0.077-2.501,0.333-4.989,0.735-7.451c4.004,0.239,7.945,0.159,11.927-0.457 c0.641-0.099,0.494-1.179-0.154-1.136c-3.836,0.258-7.68,0.373-11.522,0.237c0.906-4.821,2.468-9.499,4.526-13.961 c3.19,0.065,6.372,0.158,9.565,0.039c0.764-0.028,0.765-1.16,0-1.189c-3.004-0.111-5.999-0.035-8.999,0.028 c1.078-2.216,2.329-4.348,3.667-6.425c4.993,0.256,10.084,0.685,15.04,0.256c0.92-0.08,0.897-1.306,0-1.413 c-4.641-0.558-9.423-0.366-14.131-0.268c1.671-2.445,3.542-4.757,5.561-6.943c3.473,0.597,7.067,0.826,10.568,0.514 c0.731-0.065,0.756-1.141,0-1.156c-3.211-0.068-6.391-0.191-9.586-0.415c1.805-1.864,3.765-3.585,5.814-5.208 c7.734,0.066,15.46,0.289,23.193,0.462c0.759,0.017,0.724-1.08,0-1.156c-7.136-0.757-14.315-0.892-21.483-0.641 c2.437-1.787,5.019-3.408,7.762-4.805c0.184-0.094,0.382-0.162,0.567-0.254c5.519,0.233,11.067,0.268,16.579,0.011 c0.702-0.033,0.704-1.06,0-1.092c-4.667-0.218-9.359-0.194-14.041-0.056c2.213-0.954,4.511-1.709,6.839-2.371 c2.78-0.104,5.559-0.103,8.342-0.071c0.835,0.009,0.816-1.226,0-1.285c-0.736-0.053-1.469-0.025-2.203-0.042 c22.29-3.816,47.091,4.92,57.494,26.079c-12.849,7.38-25.786,14.604-38.651,21.997c-0.368,0.212-0.495,0.524-0.481,0.831 c-0.003,0.008-0.011,0.009-0.014,0.017c-2.371,6.694,2.872,13.761,7.354,18.307c4.373,4.436,11.141,9.008,17.668,7.751 c0.077-0.015,0.104-0.083,0.171-0.11c0.723,0.394,1.724,0.364,2.328-0.496c6.56-9.351,13.115-18.706,19.672-28.06 C206.928,135.333,184.313,164.655,158.864,171.515z"/> <path d="M113.807,56.386c-1.149-0.036-2.283,0.077-3.426,0.181c-0.999,0.091-1.015,1.656,0,1.574 c1.211-0.097,2.413-0.186,3.605-0.43C114.754,57.554,114.544,56.41,113.807,56.386z"/> <path d="M91.818,101.407c-1.71-0.147-3.427-0.021-5.14,0.04c-0.547,0.019-0.548,0.832,0,0.851c1.713,0.061,3.43,0.187,5.14,0.04 C92.417,102.287,92.418,101.458,91.818,101.407z"/> </g> </g>
<g id="SVGRepo_iconCarrier"> <g> <path d="M132.452,105.927c-1.731-0.474-3.652-0.262-5.48-0.049c-0.351-1.427-0.727-2.848-1.208-4.23 c-0.294-0.845-1.646-0.759-1.625,0.22c0.03,1.421,0.164,2.843,0.326,4.262c-1.56,0.136-3.174,0.327-4.471,1.141 c-0.582,0.365-0.431,1.174,0.182,1.395c1.441,0.517,3.069,0.407,4.64,0.31c0.005,0.039,0.009,0.078,0.014,0.117 c0.253,1.929,0.204,3.782,1.433,5.333c0.577,0.728,1.69,0.231,1.933-0.51c0.537-1.639-0.035-3.341-0.475-4.992 c1.596,0.046,3.225,0.126,4.731-0.3C133.773,108.248,133.791,106.293,132.452,105.927z"/> <path d="M162.13,86.063c-2.245-0.929-4.922-1.049-7.376-1.218c0.113-1.817,0.281-3.665-0.438-5.356 c-0.239-0.563-1.042-0.427-1.318,0c-0.966,1.494-1.06,3.378-1.247,5.139c-1.878-0.12-3.774-0.129-5.555,0.443 c-0.619,0.199-0.567,0.99,0,1.208c1.614,0.621,3.397,0.829,5.168,1.013c-0.243,1.49-0.435,3.014-0.034,4.395 c0.318,1.092,2.034,1.475,2.583,0.338c0.641-1.326,0.728-2.818,0.751-4.308c2.354,0.414,4.7,1.14,7.085,1.154 C163.482,88.881,163.534,86.644,162.13,86.063z"/> <path d="M258.936,146.023c-1.835,4.374-3.276,8.983-7.589,11.611c-3.658,2.23-7.572,1.907-10.971,0.189 c3.463-8.493,5.868-17.316,7.011-25.919c0.262-1.973-3.232-2.464-3.502-0.474c-1.167,8.594-3.395,16.725-6.524,24.36 c-0.876-0.726-1.71-1.51-2.437-2.385c-5.169-6.218-5.961-14.013-4.447-21.7c0.181-0.917-1.155-1.641-1.615-0.681 c-4.554,9.517-1.291,21.747,6.987,28.174c-4.738,10.39-11.193,19.8-19.255,27.961c-8.838-11.173-19.923-20.33-32.999-25.652 c15.442-14.167,24.937-36.811,15.641-56.053c-0.033-0.067-0.085-0.102-0.125-0.159c2.293-3.271,4.587-6.542,6.88-9.813 c4.093-5.839,15.814-16.113,14.121-23.606c-0.232-1.027-1.553-1.536-2.43-0.989c-8.717,5.439-17.564,10.628-26.448,15.751 c-5.194-12.151-15.443-20.491-27.428-25.032c0.189-0.43,0.223-0.938-0.035-1.471c-4.525-9.365-11.894-13.763-20.409-14.896 c-0.088-0.209-0.226-0.413-0.445-0.603C123.898,28.2,94.56,16.689,71.785,30.071c0.236-3.198-3.766-6.303-6.407-7.375 C60.713,20.802,55.419,22.17,52.166,26c-3.079,3.623-3.551,8.81-1.234,12.962c1.359,2.435,3.993,4.895,6.698,4.766 c-13.364,21.517-6.86,56.549,10.159,73.814c1.463,7.303,5.813,13.777,14.384,18.246c0.514,1.854,1.096,3.705,1.794,5.545 c4.306,11.36,12.472,20.04,22.515,25.983c-12.215,7.99-22.494,18.79-29.792,31.3c-11.29-6.018-21.67-12.905-31.009-21.126 c0.271-0.281,0.563-0.5,0.825-0.803c13.583-15.71-2.289-35.592-15.313-44.907c-1.75-1.251-3.933,1.573-2.306,2.99 c10.247,8.929,26.078,23.597,15.335,38.355c-0.474,0.651-0.991,1.171-1.5,1.714c-10.026-9.353-18.809-20.35-26.208-33.586 c-1.111-1.986-4.152-0.21-3.052,1.784c6.808,12.342,15.662,24.179,26.062,34.512c-11.756,7.144-29.225-5.715-37.712-13.383 c-0.813-0.735-2.358,0.268-1.615,1.246c8.462,11.135,28.629,23.677,42.159,14.84c9.585,9.031,20.409,16.717,32.08,22.431 c-5.802,11.226-9.254,23.644-9.623,36.515c-0.028,0.979,1.607,1.248,1.751,0.237c0.248-1.733,0.614-3.405,0.929-5.103 c3.351,0.086,6.699,0.074,10.047-0.093c0.568-0.028,0.569-0.855,0-0.883c-3.283-0.164-6.566-0.175-9.852-0.096 c0.569-2.918,1.259-5.773,2.024-8.587c7.842,0.171,15.69,0.196,23.532,0.099c0.786-0.01,0.786-1.207,0-1.221 c-7.727-0.134-15.461-0.145-23.191-0.019c0.606-2.14,1.287-4.238,2.006-6.314c3.317,0.355,6.721,0.423,10.048,0.604 c0.648,0.035,0.816-1.059,0.156-1.152c-3.179-0.446-6.568-0.763-9.804-0.564c0.674-1.881,1.407-3.728,2.179-5.553 c3.073,0.13,6.124,0.4,9.181,0.757c0.694,0.081,0.865-1.134,0.167-1.23c-2.936-0.404-5.893-0.578-8.854-0.656 c0.773-1.764,1.58-3.509,2.467-5.206c7.375,3.331,15.07,5.868,23.02,7.382c1.153,0.22,1.546-1.309,0.478-1.735 c-7.415-2.958-14.505-6.144-21.289-9.612c1.022-1.746,2.114-3.448,3.247-5.125c4.811,0.522,9.63,0.939,14.471,1.033 c0.757,0.015,0.752-1.141,0-1.173c-4.625-0.192-9.246-0.389-13.863-0.721c1.454-2.101,3.037-4.119,4.668-6.106 c6.378,0.08,12.674,0.637,19.008,1.49c0.807,0.109,1.184-1.104,0.346-1.255c-6.154-1.11-12.381-1.417-18.616-1.198 c2.156-2.557,4.515-4.978,6.978-7.328c4.587,0.138,9.171,0.295,13.759,0.33c0.857,0.007,0.836-1.252,0-1.317 c-4.154-0.322-8.308-0.343-12.468-0.244c1.702-1.563,3.488-3.067,5.325-4.536c3.809,0.245,7.616,0.519,11.427,0.747 c0.809,0.048,1.015-1.31,0.194-1.436c-3.196-0.487-6.457-0.681-9.715-0.759c1.641-1.247,3.293-2.488,5.053-3.65 c16.78,8.675,37.929,10.208,55.343,4.046c5.922-2.095,11.7-5.578,16.896-10.008c12.628,6.887,23.285,16.092,31.848,26.964 c-5.444,5.087-11.523,9.658-18.176,13.653c-0.72,0.433-0.251,1.728,0.594,1.409c7.366-2.777,14.018-6.918,19.916-12.026 c9.025,12.348,15.448,26.679,19.025,42.174c0.504,2.183,3.802,1.254,3.346-0.922c-3.215-15.331-9.847-30.863-19.431-43.992 c8.436-8.125,15.107-18.287,19.972-29.15c10.501,5.26,22.032-3.325,22.963-14.728C262.071,144.562,259.537,144.593,258.936,146.023 z M201.657,84.56c3.222-1.918,10.795-8.582,14.141-9.048c1.956-2.321,1.236-1.219-2.159,3.306l-6.012,8.564 c-3.507,4.996-7.015,9.992-10.522,14.988c-7.469,10.64-14.941,21.279-22.407,31.921c-3.947-0.959-7.293-1.884-10.442-3.739 c2.214,0.237,4.429,0.45,6.655,0.586c0.494,0.03,0.47-0.698,0-0.755c-2.684-0.327-5.371-0.551-8.066-0.737 c-0.944-0.66-1.877-1.398-2.806-2.291c-0.438-0.421-0.844-0.854-1.25-1.288c4.791,0.661,9.928,0.492,14.697,0.163 c0.806-0.056,0.825-1.28,0-1.269c-5.132,0.072-10.403-0.174-15.516,0.193c-1.468-1.697-2.647-3.519-3.615-5.443 c2.667,0.171,5.318,0.185,7.996-0.106c0.702-0.076,0.739-1.145,0-1.124c-2.874,0.08-5.754,0.056-8.629-0.06 c-0.74-1.729-1.226-3.588-1.544-5.536c5.82,0.481,11.687,0.095,17.45-0.782c0.576-0.088,0.447-1.085-0.139-1.025 c-5.825,0.59-11.624,0.765-17.47,0.911c-0.026-0.21-0.088-0.4-0.108-0.613c3.462-1.6,6.841-3.332,10.24-5.03 c4.076,0.152,8.114,0.134,12.191-0.251c0.617-0.058,0.64-1.004,0-0.98c-3.396,0.127-6.798,0.217-10.2,0.252 c2.868-1.452,5.719-2.936,8.563-4.436c4.323-0.088,8.672-0.331,12.91-1.132c0.573-0.108,0.449-1.068-0.139-1.025 c-3.428,0.249-6.84,0.562-10.258,0.82c2.842-1.519,5.677-3.055,8.492-4.642c0.126-0.071,0.249-0.146,0.375-0.217 c2.655-0.136,5.31-0.266,7.96-0.483c0.833-0.068,0.86-1.309,0-1.317c-1.734-0.016-3.46,0.078-5.184,0.193 C191.816,90.31,196.76,87.475,201.657,84.56z M53.61,37.499c2.637,0.063,5.23-0.087,7.83-0.661 c0.712-0.157,0.571-1.369-0.175-1.293c-2.744,0.278-5.49,0.501-8.249,0.504c-0.122-0.386-0.215-0.757-0.275-1.096 c-0.107-0.609-0.124-1.216-0.103-1.816c1.543,0.041,3.089,0.09,4.628,0.022c0.868-0.038,0.869-1.311,0-1.349 c-1.478-0.065-2.962-0.021-4.444,0.018c0.255-1.311,0.873-2.509,1.722-3.577c1.622-0.035,3.217,0.075,4.828,0.307 c0.852,0.123,1.237-1.165,0.363-1.317c-1.345-0.233-2.686-0.281-4.035-0.256c4.153-3.219,12.503-2.155,13.038,4.064 c0.026,0.303,0.152,0.558,0.317,0.772c-1.954,1.358-3.86,2.89-5.691,4.66c-1.449,1.401-2.735,2.934-3.926,4.536 c-0.068,0.007-0.128-0.036-0.197-0.011C56.697,41.928,54.71,39.776,53.61,37.499z M57.431,93.625 c1.911,0.069,3.798,0.019,5.707-0.281c0.638-0.1,0.495-1.196-0.154-1.136c-1.975,0.183-3.958,0.255-5.94,0.205 c-0.54-1.688-1.014-3.398-1.451-5.117c3.51,0.17,7.005,0.325,10.526,0.21c0.678-0.022,0.665-0.992,0-1.044 c-3.606-0.282-7.199-0.281-10.808-0.268c-0.43-1.792-0.791-3.595-1.094-5.4c2.257-0.011,4.525-0.094,6.767-0.274 c0.66-0.053,0.681-1.058,0-1.044c-2.3,0.049-4.616,0.199-6.913,0.425c-0.313-2.013-0.513-4.024-0.649-6.028 c5.368,0.026,10.77,0.173,16.125-0.234c1.001-0.076,1.024-1.54,0-1.574c-5.388-0.181-10.798,0.2-16.18,0.452 c-0.114-2.447-0.058-4.868,0.128-7.258c2.46-0.007,4.915-0.108,7.339-0.568c0.583-0.11,0.455-1.084-0.141-1.041 c-2.378,0.169-4.748,0.364-7.126,0.475c0.197-1.985,0.511-3.938,0.943-5.852c5.025,0.016,10.02-0.017,15.034-0.38 c0.788-0.057,0.803-1.21,0-1.237c-4.9-0.166-9.77-0.014-14.665,0.189c0.727-2.778,1.728-5.456,3.025-8.003 c2.435,0.14,4.952,0.038,7.361-0.276c0.729-0.095,0.775-1.134,0-1.173c-2.204-0.11-4.463-0.001-6.673,0.256 c1.105-1.983,2.352-3.9,3.868-5.684c0.079-0.093,0.162-0.174,0.241-0.266c6.444,0.556,13.097,0.419,19.37-1.157 c1.102-0.277,0.605-1.808-0.457-1.657c-5.969,0.848-11.745,1.496-17.709,1.486c2.019-2.164,4.167-3.928,6.372-5.496 c3.276,0.163,6.554,0.34,9.834,0.206c0.796-0.032,0.775-1.15,0-1.221c-2.672-0.244-5.354-0.274-8.035-0.283 c2.394-1.504,4.882-2.666,7.43-3.569c1.914,0.099,3.827,0.188,5.746,0.196c0.793,0.003,0.776-1.166,0-1.221 c-0.647-0.046-1.293-0.064-1.94-0.095c18.279-4.416,39.181,4.424,54.615,16.052c-18.317,0.323-40.009,13.008-50.476,23.621 c-3.181,3.226-6.337,7.239-9.221,11.634c-0.229,0.02-0.458,0.039-0.688,0.059c-0.646,0.055-0.666,1.04-0.009,1.025 c-1.683,2.654-3.289,5.399-4.662,8.28c-0.347,0.01-0.694,0.036-1.042,0.042c-0.724,0.013-0.725,1.109,0,1.124 c0.177,0.004,0.349-0.014,0.525-0.012c-1.106,2.426-2.096,4.895-2.883,7.386c-0.099-0.162-0.248-0.291-0.498-0.298 c-3.353-0.086-6.699-0.055-10.051-0.021C58.393,96.415,57.901,95.025,57.431,93.625z M67.336,114.422 c-1.932-2.973-3.74-6.238-5.402-9.668c1.442-0.077,2.88-0.197,4.307-0.428c0.52-0.084,0.381-0.896-0.122-0.899 c-1.564-0.009-3.123,0.117-4.678,0.29c-0.705-1.502-1.364-3.046-1.999-4.609c2.885,0.027,5.769,0.038,8.656-0.018 c0.002,0.304,0.195,0.591,0.591,0.564c0.11-0.007,0.22-0.014,0.33-0.021C67.597,104.634,66.909,109.662,67.336,114.422z M80.025,118.787c-0.042,4.801,0.427,9.663,1.561,14.516c-4.021-3.574-6.933-7.364-8.925-11.277 c0.959-0.022,1.919-0.023,2.881-0.081c0.475-0.029,0.476-0.71,0-0.739c-1.117-0.068-2.23-0.074-3.345-0.094 c-0.783-1.667-1.34-3.362-1.798-5.065c2.652-0.088,5.296-0.399,7.88-0.993c0.757-0.174,0.424-1.269-0.316-1.146 c-2.611,0.432-5.223,0.705-7.854,0.915c-0.467-2.082-0.65-4.185-0.679-6.293c2.124-0.253,4.261-0.403,6.398-0.503 c0.565-0.027,0.571-0.871,0-0.883c-2.169-0.046-4.292,0.158-6.427,0.474c0.04-2.692,0.446-5.391,1.117-8.077 c1.868-0.115,3.737-0.232,5.596-0.445c0.78-0.089,0.824-1.285,0-1.253c-1.747,0.068-3.489,0.22-5.231,0.379 c0.727-2.54,1.74-5.057,2.951-7.54c2.339-0.042,4.65-0.196,6.984-0.591c0.566-0.096,0.441-1.063-0.137-1.01 c-2.076,0.193-4.162,0.325-6.248,0.417c1.472-2.834,3.242-5.609,5.24-8.299c2.434-0.093,4.867-0.192,7.291-0.435 c0.735-0.074,0.769-1.192,0-1.172c-2.127,0.054-4.248,0.221-6.368,0.403c1.947-2.507,4.097-4.931,6.408-7.247 c1.863,0.117,3.709,0.098,5.555-0.233c0.687-0.123,0.538-1.309-0.166-1.231c-1.395,0.156-2.782,0.252-4.174,0.292 c1.394-1.343,2.841-2.646,4.333-3.904c2.808-0.212,5.612-0.436,8.407-0.796c0.824-0.106,0.881-1.373,0-1.333 c-2.106,0.095-4.204,0.27-6.301,0.464c1.667-1.324,3.393-2.572,5.143-3.776c2.917-0.237,5.821-0.5,8.725-0.911 c0.596-0.084,0.446-1.055-0.141-1.041c-2.05,0.047-4.088,0.172-6.124,0.321c21.243-13.646,46.865-17.83,57.58-0.37 c-13.451-4.039-28.563-3.509-41.086,1.712c-23.559,9.823-38.226,32.044-38.732,56.087 C79.631,118.104,79.639,118.657,80.025,118.787z M158.864,171.515c-12.466,3.36-26.699,2.743-39.407-1.658 c2.959,0.303,5.951,0.461,8.912,0.452c0.634-0.002,0.603-0.897,0-0.964c-3.559-0.392-7.198-0.619-10.78-0.532 c-0.175,0.004-0.276,0.089-0.342,0.195c-3.002-1.163-5.906-2.541-8.666-4.133c2.98,0.214,5.961,0.454,8.94,0.573 c0.678,0.027,0.635-0.945,0-1.028c-3.558-0.463-7.173-0.655-10.775-0.706c-2.541-1.595-4.935-3.39-7.166-5.358 c5.719,0.664,11.662,0.454,17.367,0.124c0.788-0.045,0.802-1.245,0-1.237c-6.105,0.061-12.318-0.227-18.41,0.173 c-1.842-1.718-3.547-3.578-5.105-5.565c2.392,0.183,4.861,0.019,7.238-0.058c0.671-0.022,0.673-1.022,0-1.044 c-2.644-0.086-5.408-0.298-8.047,0.006c-1.368-1.854-2.628-3.801-3.708-5.886c-0.031-0.06-0.051-0.122-0.082-0.182 c5.277,0.003,10.578-0.409,15.835-0.825c0.732-0.058,0.753-1.178,0-1.157c-5.325,0.153-10.693,0.312-15.991,0.894 c-0.119,0.013-0.192,0.081-0.271,0.141c-1.411-2.88-2.466-5.831-3.325-8.807c1.773,0.102,3.564,0.105,5.309,0.03 c0.592-0.025,0.587-0.877,0-0.916c-1.833-0.119-3.731-0.161-5.599-0.074c-0.549-2.046-0.93-4.108-1.233-6.174 c4.633,0.173,9.229-0.02,13.813-0.886c0.483-0.091,0.38-0.922-0.117-0.868c-4.602,0.501-9.193,0.847-13.812,0.82 c-0.338-2.621-0.451-5.248-0.413-7.865c2.169,0.111,4.341,0.15,6.507-0.049c0.627-0.058,0.65-1.021,0-0.996 c-2.176,0.085-4.343,0.121-6.513,0.099c0.077-2.501,0.333-4.989,0.735-7.451c4.004,0.239,7.945,0.159,11.927-0.457 c0.641-0.099,0.494-1.179-0.154-1.136c-3.836,0.258-7.68,0.373-11.522,0.237c0.906-4.821,2.468-9.499,4.526-13.961 c3.19,0.065,6.372,0.158,9.565,0.039c0.764-0.028,0.765-1.16,0-1.189c-3.004-0.111-5.999-0.035-8.999,0.028 c1.078-2.216,2.329-4.348,3.667-6.425c4.993,0.256,10.084,0.685,15.04,0.256c0.92-0.08,0.897-1.306,0-1.413 c-4.641-0.558-9.423-0.366-14.131-0.268c1.671-2.445,3.542-4.757,5.561-6.943c3.473,0.597,7.067,0.826,10.568,0.514 c0.731-0.065,0.756-1.141,0-1.156c-3.211-0.068-6.391-0.191-9.586-0.415c1.805-1.864,3.765-3.585,5.814-5.208 c7.734,0.066,15.46,0.289,23.193,0.462c0.759,0.017,0.724-1.08,0-1.156c-7.136-0.757-14.315-0.892-21.483-0.641 c2.437-1.787,5.019-3.408,7.762-4.805c0.184-0.094,0.382-0.162,0.567-0.254c5.519,0.233,11.067,0.268,16.579,0.011 c0.702-0.033,0.704-1.06,0-1.092c-4.667-0.218-9.359-0.194-14.041-0.056c2.213-0.954,4.511-1.709,6.839-2.371 c2.78-0.104,5.559-0.103,8.342-0.071c0.835,0.009,0.816-1.226,0-1.285c-0.736-0.053-1.469-0.025-2.203-0.042 c22.29-3.816,47.091,4.92,57.494,26.079c-12.849,7.38-25.786,14.604-38.651,21.997c-0.368,0.212-0.495,0.524-0.481,0.831 c-0.003,0.008-0.011,0.009-0.014,0.017c-2.371,6.694,2.872,13.761,7.354,18.307c4.373,4.436,11.141,9.008,17.668,7.751 c0.077-0.015,0.104-0.083,0.171-0.11c0.723,0.394,1.724,0.364,2.328-0.496c6.56-9.351,13.115-18.706,19.672-28.06 C206.928,135.333,184.313,164.655,158.864,171.515z"/> <path d="M113.807,56.386c-1.149-0.036-2.283,0.077-3.426,0.181c-0.999,0.091-1.015,1.656,0,1.574 c1.211-0.097,2.413-0.186,3.605-0.43C114.754,57.554,114.544,56.41,113.807,56.386z"/> <path d="M91.818,101.407c-1.71-0.147-3.427-0.021-5.14,0.04c-0.547,0.019-0.548,0.832,0,0.851c1.713,0.061,3.43,0.187,5.14,0.04 C92.417,102.287,92.418,101.458,91.818,101.407z"/> </g> </g>
</svg>